<?xml version="1.0" encoding="UTF-8"?>
<svg id="Capa_2" data-name="Capa 2" xmlns="http://www.w3.org/2000/svg" viewBox="0 0 423.93 449">
  <defs>
    <style>
      .cls-1 {
        fill: #dadada;
      }

      .cls-1, .cls-2, .cls-3, .cls-4, .cls-5 {
        stroke-miterlimit: 10;
      }

      .cls-1, .cls-2, .cls-4, .cls-5 {
        stroke: #adadad;
      }

      .cls-1, .cls-3 {
        stroke-width: 6px;
      }

      .cls-2 {
        stroke-width: 4.5px;
      }

      .cls-2, .cls-6, .cls-4, .cls-5 {
        fill: none;
      }

      .cls-3 {
        fill: #adadad;
        stroke: #979797;
      }

      .cls-4 {
        stroke-width: 24px;
      }

      .cls-5 {
        stroke-width: 9px;
      }
    </style>
  </defs>
  <g id="Logotipo_05:_600_x_600_px" data-name="Logotipo 05: 600 x 600 px">
    <g>
      <g id="HR">
        <rect class="cls-3" x="222.26" y="72.53" width="37.94" height="264.89" transform="translate(-75.16 215.17) rotate(-42.2)"/>
        <g id="R">
          <path class="cls-3" d="M206.87,170.53c-20.44,59.26-40.89,118.52-61.33,177.78,8.16,10.52,16.33,21.05,24.49,31.57,21.19-60.23,42.38-120.45,63.57-180.68"/>
          <path class="cls-1" d="M245.64,182.36c14.65-13.17,26.69-23.92,34.57-30.94,15.18,14.26,14.43,34.45,6.42,41.33-7.85,6.74-27.27,4.66-39.3-11.55-1.72,1.44-3.45,2.91-5.18,4.38-8.49,7.27-16.57,14.58-24.25,21.9,28.45,30.64,74.23,29.58,96.54,5.49,23.63-25.52,12.75-68.1.44-83.04-1.02-1.23-3.5-4.05-3.85-4.44-11.34-12.84-21.42-22.27-28.44-28.44-19.25,17.86-44.9,41.52-75.44,69.29-15.58,14.17-24.29,21.95-47.82,43.31-25.81,23.42-51.61,46.83-77.42,70.25,8.54,9.23,17.08,18.47,25.61,27.7,32.09-28.97,57.74-52.29,75.38-68.34,18.22-16.59,36.41-33.21,62.75-56.89Z"/>
        </g>
        <rect class="cls-3" x="163.91" y="115.85" width="36.15" height="264.89" transform="translate(-119.61 186.59) rotate(-42.2)"/>
      </g>
      <g id="Exterior">
        <g id="Circulitos_Fusion" data-name="Circulitos Fusion">
          <g>
            <path class="cls-6" d="M350.02,334.47c1.3-19.25,17.33-34.47,36.91-34.47s37,16.57,37,37-16.57,37-37,37-37-16.57-37-37c0-.85.03-1.7.09-2.53"/>
            <path class="cls-2" d="M359.22,335.73c.65-14.73,12.81-26.48,27.71-26.48s27.75,12.42,27.75,27.75-12.42,27.75-27.75,27.75-27.42-12.11-27.73-27.15c-.01-.62,0-1.24.02-1.86"/>
            <circle class="cls-5" cx="386.93" cy="337" r="18.5"/>
          </g>
        </g>
      </g>
      <g id="Circulo_Padre" data-name="Circulo Padre">
        <path class="cls-4" d="M55.62,358.86c13.73,16.98,46.67,52.88,99.43,69.19,27.31,8.44,51.19,8.94,59.38,8.94s32.09-.5,59.35-8.93c52.4-16.2,85.27-51.76,99.06-68.69"/>
      </g>
    </g>
    <g>
      <path class="cls-6" d="M2.73,334.47c1.3-19.25,17.33-34.47,36.91-34.47s37,16.57,37,37-16.57,37-37,37S2.65,357.43,2.65,337c0-.85.03-1.7.09-2.53"/>
      <path class="cls-2" d="M11.94,335.73c.65-14.73,12.81-26.48,27.71-26.48s27.75,12.42,27.75,27.75-12.42,27.75-27.75,27.75-27.42-12.11-27.73-27.15c-.01-.62,0-1.24.02-1.86"/>
      <circle class="cls-5" cx="39.65" cy="337" r="18.5"/>
    </g>
    <g>
      <path class="cls-6" d="M174.4,34.47C175.7,15.21,191.73,0,211.31,0s37,16.57,37,37-16.57,37-37,37-37-16.57-37-37c0-.85.03-1.7.09-2.53"/>
      <path class="cls-2" d="M183.61,35.73c.65-14.73,12.81-26.48,27.71-26.48s27.75,12.42,27.75,27.75-12.42,27.75-27.75,27.75-27.42-12.11-27.73-27.15c-.01-.62,0-1.24.02-1.86"/>
      <circle class="cls-5" cx="211.31" cy="37" r="18.5"/>
    </g>
    <path class="cls-4" d="M185.72,39.92c-21.57,3.41-69.13,13.98-109.64,51.51-20.97,19.43-33.34,39.86-37.44,46.96s-15.61,28.04-21.94,55.86c-12.17,53.48,2.19,99.73,9.95,120.13"/>
    <path class="cls-4" d="M237.97,38.92c21.57,3.41,69.13,13.98,109.64,51.51,20.97,19.43,33.34,39.86,37.44,46.96s15.61,28.04,21.94,55.86c12.17,53.48-2.19,99.73-9.95,120.13"/>
  </g>
</svg>